<svg xmlns="http://www.w3.org/2000/svg" xmlns:svg="http://www.w3.org/2000/svg" width="60" height="60" viewBox="0 0 60 60.000003" version="1.1" id="svg1">
  <defs id="defs1"/>
  <g id="layer1">
    <text xml:space="preserve" style="font-size:192.966px;font-family:'.SF Hebrew Rounded';-inkscape-font-specification:'.SF Hebrew Rounded, @wght=391';text-align:start;writing-mode:lr-tb;direction:ltr;text-anchor:start;fill:#22241c;stroke-width:5;stroke-linecap:round;stroke-linejoin:round" x="320" y="0" id="text46"><tspan id="tspan46" x="320" y="0">😎</tspan></text>
    <g id="g23" transform="translate(-320,-534.99997)">
      <path style="fill:#4d4d4d;stroke-width:5;stroke-linecap:round;stroke-linejoin:round" d="M 320,534.99997 H 332.413 380 v 60 h -60 v -50 z" id="path11"/>
      <path style="fill:#000000;fill-opacity:0.347701;stroke-width:5;stroke-linecap:round;stroke-linejoin:round" d="m 380,534.99997 v 60 h -60 z" id="path13"/>
      <path style="fill:#ff0000;stroke-width:5;stroke-linecap:round;stroke-linejoin:round" d="m 350,564.99997 10,-10 h -10 l 10,-10 h 10 l -10,10 h 10 l -10,10 z" id="path7"/>
      <path style="fill:#3eb4ff;fill-opacity:1;stroke-width:5;stroke-linecap:round;stroke-linejoin:round" d="m 340,544.99997 h 10 v 20 h -20 v -10 l 10,10 z" id="path8"/>
      <path style="fill:#55d400;stroke-width:5;stroke-linecap:round;stroke-linejoin:round" d="m 330,564.99997 10,10 h -10 v 10 h 10 l 10,-10 -10,-10 z" id="path9"/>
      <path style="fill:#ff00ff;stroke-width:5;stroke-linecap:round;stroke-linejoin:round" d="m 350,584.99997 v -10 l 10,-10 h 10 v 20 h -10 l 10,-10 h -10 z" id="path10"/>
    </g>
  </g>
<script xmlns=""/></svg>